<?xml version="1.0" standalone="no"?>
<!DOCTYPE svg PUBLIC "-//W3C//DTD SVG 20010904//EN"
 "http://www.w3.org/TR/2001/REC-SVG-20010904/DTD/svg10.dtd">
<svg version="1.0" xmlns="http://www.w3.org/2000/svg"
 width="816.000000pt" height="744.000000pt" viewBox="0 0 816.000000 744.000000"
 preserveAspectRatio="xMidYMid meet">

<g transform="translate(0.000000,744.000000) scale(0.100000,-0.100000)"
fill="#000000" stroke="none">
<path d="M3875 7130 c-102 -19 -213 -47 -239 -61 -16 -8 -37 -28 -45 -46 -9
-18 -23 -34 -31 -36 -8 -3 3 -5 25 -6 40 -2 40 -2 15 -16 -14 -8 -21 -14 -16
-15 11 0 -54 -60 -65 -60 -4 0 -24 -17 -44 -37 -42 -45 -89 -136 -109 -213 -7
-30 -23 -71 -35 -91 -17 -29 -19 -42 -11 -63 5 -15 17 -29 25 -32 14 -6 14 -9
-2 -27 -10 -11 -13 -18 -7 -14 7 4 11 -4 11 -21 1 -27 4 -44 16 -72 4 -8 6
-33 4 -55 -2 -35 1 -40 19 -39 12 0 21 -5 21 -10 -1 -40 4 -57 16 -53 29 9 71
-108 88 -246 16 -139 50 -279 84 -352 30 -66 33 -79 33 -180 1 -61 7 -161 13
-223 10 -93 10 -115 -1 -122 -9 -6 -7 -10 9 -15 17 -5 21 -14 21 -48 0 -93 75
-287 154 -398 26 -38 37 -67 54 -162 12 -63 22 -125 22 -137 0 -12 -15 -40
-33 -63 -19 -23 -50 -69 -70 -102 -57 -97 -135 -135 -425 -214 -107 -30 -312
-104 -490 -177 -45 -19 -94 -34 -109 -34 -27 0 -247 -102 -258 -120 -3 -5 -15
-10 -26 -10 -35 0 -95 -38 -122 -78 -48 -68 -127 -269 -127 -320 0 -15 -13
-37 -35 -58 -38 -35 -43 -55 -21 -73 12 -10 10 -19 -10 -55 -23 -42 -94 -272
-94 -306 0 -9 -7 -25 -15 -36 -8 -10 -15 -34 -15 -51 0 -18 -4 -33 -10 -33
-22 0 -33 -42 -20 -79 9 -29 8 -54 -4 -125 -9 -49 -16 -93 -16 -97 0 -5 -7 -9
-15 -9 -8 0 -22 -12 -31 -26 -16 -24 -16 -28 -1 -53 21 -35 13 -67 -28 -111
-42 -45 -55 -71 -55 -111 0 -18 -13 -59 -30 -93 -38 -79 -180 -412 -180 -424
0 -5 -9 -17 -20 -27 -11 -10 -20 -26 -20 -37 0 -10 -4 -18 -9 -18 -9 0 -22
-30 -41 -100 -7 -25 -18 -58 -25 -75 -7 -16 -18 -52 -25 -80 -8 -27 -26 -72
-42 -98 -15 -26 -28 -54 -28 -60 0 -7 -6 -19 -12 -26 -9 -8 -13 -53 -13 -149
0 -115 4 -154 27 -242 14 -58 33 -152 42 -210 15 -98 53 -237 77 -281 9 -19
67 -19 2509 -19 l2500 0 15 36 c33 78 47 154 52 279 5 115 8 135 31 175 53 94
96 189 157 349 94 249 172 477 189 556 8 39 27 113 41 165 32 116 50 229 65
420 11 124 16 149 36 180 32 46 31 99 -3 166 l-27 53 17 60 c20 73 21 108 2
141 -10 18 -14 61 -15 155 0 108 3 139 21 185 24 62 22 129 -5 159 -9 10 -16
34 -16 53 0 121 -75 417 -135 538 -38 75 -99 120 -161 120 -13 0 -57 16 -97
36 -55 28 -91 39 -155 46 -52 6 -108 20 -153 39 -42 18 -102 34 -147 39 -42 5
-131 24 -197 43 -66 19 -140 38 -164 42 -95 16 -200 82 -229 145 -12 27 -44
65 -77 94 -31 26 -99 101 -151 166 -52 65 -102 121 -110 124 -9 3 -40 6 -70 6
-32 0 -54 4 -54 11 0 12 28 65 47 89 11 14 32 88 54 188 6 26 14 91 18 145 7
94 8 99 38 123 l31 24 -14 61 c-16 69 -11 85 16 52 23 -29 25 -29 40 8 11 25
11 32 1 39 -10 6 -10 9 -1 15 8 5 10 22 5 51 -5 33 -2 51 12 74 9 16 21 30 26
30 4 0 5 5 2 10 -3 6 -1 10 6 10 8 0 10 17 7 55 -6 70 -37 109 -75 94 -34 -13
-35 -12 -23 11 6 11 18 20 26 20 8 0 12 5 9 10 -3 6 -20 10 -37 10 -33 0 -33
-8 -9 104 14 65 24 447 12 465 -6 9 -5 21 2 32 9 14 6 30 -11 71 -12 29 -22
62 -22 73 0 24 -76 178 -112 225 -14 19 -29 45 -32 57 -9 27 -48 56 -99 73
-21 6 -65 36 -97 64 -68 61 -273 160 -355 171 -28 4 -59 13 -71 20 -34 21
-164 62 -235 74 -73 12 -461 13 -524 1z m117 -495 c6 -14 15 -25 20 -25 4 0 8
-13 8 -30 0 -34 -6 -37 -32 -13 -20 18 -25 48 -5 37 6 -4 2 4 -11 18 -12 13
-19 28 -15 31 12 13 23 7 35 -18z m18 -116 c22 -18 37 -36 34 -40 -3 -5 2 -9
10 -9 9 0 16 -5 16 -11 0 -6 8 -8 18 -5 16 6 16 5 0 -7 -15 -12 -15 -14 0 -24
15 -10 13 -12 -11 -12 -33 -1 -94 28 -121 58 -24 27 -12 27 16 1 25 -23 46
-27 28 -5 -10 12 -10 15 1 15 10 1 8 4 -3 11 -10 5 -18 18 -18 29 0 10 -6 21
-12 23 -7 3 -9 6 -5 6 5 1 26 -13 47 -30z m495 21 c3 -5 1 -10 -4 -10 -6 0
-11 5 -11 10 0 6 2 10 4 10 3 0 8 -4 11 -10z m-318 -7 c-12 -11 27 -32 40 -22
7 7 13 6 17 0 17 -27 -80 -23 -119 6 -20 15 -20 15 2 8 13 -3 31 -2 40 4 21
12 29 14 20 4z m138 -4 c11 -17 0 -20 -21 -4 -17 13 -17 14 -2 15 9 0 20 -5
23 -11z m360 -16 c83 -7 102 -10 115 -18 9 -5 11 -4 6 4 -9 13 40 -5 64 -25
10 -9 20 -10 33 -3 9 6 17 6 17 2 0 -5 18 -8 40 -6 22 1 42 -2 45 -7 3 -5 12
-7 20 -3 8 3 15 0 15 -6 0 -6 3 -10 8 -9 23 5 67 -30 101 -80 8 -12 20 -18 30
-14 9 3 13 2 9 -3 -4 -4 2 -19 12 -33 21 -25 28 -104 12 -129 -8 -13 7 -154
17 -163 3 -3 7 -25 9 -50 2 -25 9 -67 17 -95 7 -27 16 -95 20 -150 3 -55 12
-131 20 -170 8 -38 12 -95 9 -125 -3 -30 -6 -71 -8 -90 -1 -20 -7 -44 -13 -54
-6 -10 -8 -27 -5 -38 3 -14 0 -17 -13 -12 -15 6 -15 4 -4 -14 7 -12 10 -25 6
-29 -5 -4 -12 -2 -16 5 -5 9 -11 5 -21 -13 -14 -27 -67 -38 -57 -12 3 8 -1 14
-9 14 -7 0 -11 -4 -8 -9 3 -4 -2 -8 -10 -8 -9 0 -16 -5 -16 -11 0 -6 -7 -9
-14 -6 -9 4 -17 -2 -21 -14 -4 -10 -12 -19 -20 -19 -21 0 -25 -42 -11 -111 13
-62 11 -99 -4 -82 -4 4 -17 40 -29 78 -21 66 -49 115 -67 115 -4 0 -16 8 -27
18 -19 16 -20 16 -9 -3 5 -11 22 -31 36 -44 14 -14 26 -32 26 -40 -1 -14 -2
-14 -13 -1 -7 8 -23 21 -36 28 -19 11 -22 11 -15 0 6 -10 4 -10 -9 1 -14 11
-20 11 -32 1 -12 -10 -19 -10 -27 -2 -8 8 -15 8 -24 1 -10 -8 -16 -5 -26 10
-7 12 -18 21 -25 21 -7 0 -10 7 -7 15 4 8 2 15 -4 15 -13 0 -20 30 -12 60 4
14 3 32 -2 40 -5 8 -17 40 -27 70 -18 56 -28 64 -45 37 -7 -11 -3 -23 16 -46
27 -32 44 -83 33 -101 -3 -5 -14 -10 -24 -10 -26 0 -102 -35 -128 -60 -52 -48
-130 -56 -171 -17 -36 33 -85 57 -117 57 -25 0 -25 -1 -11 -22 15 -21 23 -69
10 -55 -4 3 -13 -1 -21 -9 -8 -8 -19 -12 -24 -8 -12 7 -41 -15 -34 -26 3 -4
-6 -10 -20 -12 -13 -3 -22 -1 -19 3 3 5 0 9 -5 10 -31 3 -59 1 -82 -5 -14 -4
-33 -8 -43 -10 -10 -1 -22 -9 -26 -17 -5 -8 -15 -14 -22 -14 -23 0 -29 -86
-10 -135 3 -8 6 -17 7 -20 1 -3 7 -24 15 -48 10 -31 10 -46 3 -53 -16 -16 -29
-4 -37 31 -3 17 -17 41 -31 54 -18 17 -26 36 -29 69 -4 50 -13 70 -27 61 -5
-3 -16 0 -24 6 -11 10 -15 10 -15 1 0 -7 -4 -9 -10 -6 -6 3 -7 -1 -4 -9 3 -9
2 -16 -4 -16 -6 0 -13 6 -15 13 -3 6 -6 -1 -8 -18 -1 -21 -4 -15 -8 20 -5 40
-10 49 -23 47 -13 -2 -16 4 -14 25 4 36 -2 53 -18 47 -7 -3 -12 6 -14 22 -1
15 -7 33 -13 40 -11 14 -17 48 -18 107 -1 21 -5 36 -10 33 -17 -11 -24 144
-12 263 6 64 13 172 16 240 2 68 6 126 8 128 3 2 -4 42 -14 89 -11 47 -17 89
-14 94 3 4 0 10 -7 12 -13 5 -17 114 -6 155 7 25 28 66 37 73 4 3 14 18 24 33
10 15 26 31 35 34 9 3 31 16 47 28 48 35 128 54 141 33 5 -8 1 -9 -10 -5 -10
4 -15 3 -11 -3 3 -6 12 -10 19 -10 6 0 27 -15 45 -34 20 -21 39 -32 50 -29 10
2 25 -3 34 -11 9 -9 18 -12 21 -7 5 7 56 18 121 24 11 1 23 6 27 11 4 6 13 4
22 -3 9 -7 23 -11 31 -7 9 3 14 2 11 -3 -8 -12 10 -17 64 -19 33 -2 41 0 30 8
-16 10 -14 11 45 15 11 1 19 7 17 14 -2 8 3 11 12 8 22 -9 28 4 8 19 -12 10
-13 13 -3 14 11 0 11 3 1 15 -13 16 -6 20 30 16 9 -1 11 1 5 6 -5 4 -11 16
-11 26 -2 14 1 15 12 6 8 -6 14 -8 14 -3 0 5 6 2 13 -6 17 -21 36 -23 43 -6 3
8 12 12 20 9 7 -3 17 2 20 11 3 9 11 13 17 9 7 -4 25 -8 42 -10z m-498 -119
c-3 -3 -12 -4 -19 -1 -8 3 -5 6 6 6 11 1 17 -2 13 -5z m1261 -921 c12 -56 23
-155 15 -133 -3 8 -11 18 -16 22 -6 3 -9 29 -8 56 1 28 -3 53 -9 57 -5 3 -10
17 -10 31 0 39 17 19 28 -33z m-2 -149 c-3 -9 -6 -21 -6 -27 0 -8 -3 -8 -10
-1 -12 12 -3 44 12 44 6 0 7 -7 4 -16z m-1196 -264 c0 -5 -4 -10 -10 -10 -5 0
-10 5 -10 10 0 6 5 10 10 10 6 0 10 -4 10 -10z m-377 -113 c7 4 8 0 4 -11 -4
-10 -7 -22 -7 -27 0 -5 -4 -9 -10 -9 -5 0 -10 15 -9 33 0 17 3 26 6 19 2 -6
10 -9 16 -5z m594 -3 c2 -5 -6 -10 -17 -11 -20 -2 -26 8 -13 21 9 8 26 3 30
-10z m43 -4 c-20 -13 -33 -13 -25 0 3 6 14 10 23 10 15 0 15 -2 2 -10z m-110
-76 c13 -3 64 -7 112 -9 93 -3 112 -9 104 -31 -6 -17 30 -19 68 -4 14 5 26 6
26 2 -1 -12 -27 -42 -32 -36 -3 3 -15 -7 -27 -22 -11 -15 -21 -24 -21 -20 0 4
-5 4 -10 1 -8 -5 -7 -12 2 -22 11 -14 10 -15 -10 -9 -13 5 -22 3 -22 -3 0 -6
-11 -11 -24 -11 -14 0 -28 -5 -31 -10 -4 -6 -12 -9 -18 -8 -7 1 -21 -3 -33 -9
-30 -17 -178 -18 -168 -1 4 6 -3 5 -15 -1 -26 -15 -26 -23 0 -52 11 -13 18
-19 15 -12 -4 7 1 9 16 5 12 -3 17 -7 10 -10 -7 -2 -10 -8 -7 -12 3 -5 12 -7
20 -3 8 3 15 0 15 -6 0 -6 7 -11 16 -11 8 0 13 -4 10 -9 -4 -5 2 -7 12 -4 11
2 25 -1 33 -9 24 -22 53 -35 72 -32 9 1 17 -2 17 -7 0 -4 7 -6 15 -3 11 5 15
-1 15 -19 0 -14 -4 -28 -9 -31 -5 -3 -7 -15 -4 -26 7 -25 -5 -26 -24 -2 -8 9
-12 11 -8 5 4 -8 1 -11 -8 -7 -7 2 -14 11 -14 19 0 8 3 12 7 10 4 -2 7 9 6 24
-1 17 -5 26 -11 23 -17 -11 -65 -10 -58 1 3 5 1 7 -5 4 -5 -4 -8 -16 -5 -27 3
-12 0 -20 -6 -20 -7 0 -9 5 -6 10 3 6 0 10 -8 10 -8 0 -22 11 -31 25 -21 33
-56 34 -49 3 4 -19 3 -20 -6 -8 -9 12 -11 13 -11 1 0 -17 -11 -9 -14 11 -1 7
-7 22 -13 33 -9 16 -14 18 -24 8 -7 -7 -21 -13 -30 -13 -10 0 -16 -7 -15 -17
0 -10 -7 -19 -18 -21 -12 -3 -16 0 -11 8 7 11 14 69 15 119 0 13 5 29 10 36 7
9 5 16 -7 26 -12 11 -17 11 -20 2 -4 -10 -8 -10 -19 1 -15 15 -35 92 -26 101
3 3 0 5 -6 5 -11 0 -14 44 -5 62 2 4 16 3 30 -3 14 -5 52 -13 85 -18 57 -8 58
-7 58 16 0 25 9 26 100 7z m260 -24 c0 -5 -4 -10 -10 -10 -5 0 -10 5 -10 10 0
6 5 10 10 10 6 0 10 -4 10 -10z m90 -10 c0 -5 -2 -10 -4 -10 -3 0 -8 5 -11 10
-3 6 -1 10 4 10 6 0 11 -4 11 -10z m134 -65 c3 -8 1 -15 -4 -15 -6 0 -10 7
-10 15 0 8 2 15 4 15 2 0 6 -7 10 -15z m-86 -12 c-4 -22 -21 -42 -30 -36 -5 2
-8 0 -8 -4 0 -15 -89 -34 -108 -23 -16 9 -16 9 1 10 10 0 20 7 23 15 4 8 10
13 14 10 5 -3 11 -1 14 4 4 5 18 8 31 5 14 -2 25 0 25 6 0 6 4 9 9 6 5 -3 11
1 15 9 8 21 18 19 14 -2z m-778 -27 c0 -3 -4 -8 -10 -11 -5 -3 -10 -1 -10 4 0
6 5 11 10 11 6 0 10 -2 10 -4z m600 -41 c-7 -9 -15 -13 -19 -10 -3 3 1 10 9
15 21 14 24 12 10 -5z m185 -125 c3 -5 1 -10 -5 -10 -7 0 -10 -7 -7 -14 4 -10
1 -13 -8 -9 -8 3 -12 9 -9 14 3 5 -2 9 -11 9 -9 0 -13 5 -10 10 3 6 15 10 25
10 10 0 22 -4 25 -10z m-82 -59 c3 -12 -1 -22 -9 -25 -8 -3 -14 -1 -14 4 0 6
-3 9 -7 8 -5 -1 -18 1 -29 5 -19 7 -20 11 -11 31 11 22 14 23 38 10 15 -7 29
-22 32 -33z m36 34 c2 -3 0 -10 -5 -15 -6 -6 -20 -2 -39 11 l-30 21 34 -6 c19
-3 37 -8 40 -11z m-114 -14 c-3 -6 -11 -11 -16 -11 -5 0 -4 6 3 14 14 16 24
13 13 -3z m-39 -8 c-3 -4 8 -12 26 -17 17 -6 33 -17 36 -24 3 -10 -3 -9 -22 3
-15 10 -26 13 -26 6 0 -6 4 -11 9 -11 5 0 12 -7 15 -16 6 -15 4 -15 -10 -3
-10 8 -27 14 -38 14 -24 0 -35 33 -14 46 16 10 34 12 24 2z m657 -128 c-3 -9
-8 -14 -10 -11 -3 3 -2 9 2 15 9 16 15 13 8 -4z m-23 -45 c-6 -11 -13 -20 -16
-20 -2 0 0 9 6 20 6 11 13 20 16 20 2 0 0 -9 -6 -20z m-1314 -89 c-4 -5 9 -19
28 -30 38 -24 50 -26 40 -8 -4 7 -3 9 2 4 5 -5 9 -14 9 -20 1 -7 7 -11 14 -9
7 1 10 -2 7 -7 -4 -5 17 -22 46 -36 29 -14 71 -44 93 -66 23 -21 46 -39 53
-39 7 0 12 -5 12 -10 0 -6 16 -18 35 -27 19 -9 35 -20 35 -24 0 -4 14 -10 30
-14 17 -4 28 -11 24 -16 -3 -5 1 -9 8 -9 9 0 9 -3 -2 -10 -12 -8 -10 -10 10
-11 24 -2 24 -2 3 -6 -35 -7 -28 -20 15 -28 34 -7 35 -8 12 -15 -22 -6 -21 -7
15 -13 22 -4 60 -7 85 -8 25 -1 37 -3 28 -6 -21 -5 -24 -19 -5 -26 17 -6 61
18 147 82 55 41 95 61 151 77 42 13 93 30 114 38 21 9 52 19 69 22 17 3 36 7
41 8 6 1 16 6 24 10 10 7 12 5 7 -5 -4 -8 0 -5 8 5 12 15 19 17 27 9 16 -16 5
-53 -35 -112 -19 -28 -44 -75 -55 -106 -27 -71 -98 -213 -176 -350 -90 -157
-239 -435 -253 -470 -7 -16 -32 -109 -56 -205 -24 -96 -65 -251 -90 -344 -25
-93 -43 -172 -41 -176 9 -15 -27 -305 -42 -333 -8 -16 -42 -57 -76 -91 -87
-89 -109 -116 -92 -116 22 0 6 -31 -32 -64 -36 -31 -43 -65 -17 -87 14 -11 13
-14 -11 -26 -21 -12 -59 -13 -191 -7 -93 4 -170 12 -179 18 -19 15 -94 282
-106 381 -23 180 -23 198 2 254 20 47 21 59 11 111 -10 56 0 198 15 224 4 6
12 76 19 156 18 197 34 263 73 295 24 21 33 40 42 88 8 40 21 70 36 85 21 21
23 28 14 54 -14 41 0 65 47 78 51 14 59 13 82 -10 16 -16 25 -18 40 -10 11 6
20 15 20 20 0 6 9 10 20 10 11 0 20 5 20 10 0 6 6 10 14 10 9 0 12 9 9 28 -3
19 -2 23 5 13 8 -11 12 -10 20 5 16 32 11 76 -15 117 -31 50 -44 53 -95 27
-56 -28 -92 -62 -137 -130 -41 -61 -50 -79 -111 -227 -23 -57 -44 -103 -46
-103 -2 0 -2 17 1 38 3 20 21 161 40 312 88 687 94 720 129 756 11 11 13 21 6
38 -5 13 -6 27 -3 30 10 9 15 7 9 -3z m-189 -1213 c-3 -7 -5 -2 -5 12 0 14 2
19 5 13 2 -7 2 -19 0 -25z m1872 -1084 c12 -15 21 -35 21 -45 0 -14 7 -19 28
-19 35 0 46 -8 66 -47 22 -44 20 -70 -8 -98 -19 -19 -21 -26 -11 -37 7 -7 17
-27 23 -45 14 -42 -11 -92 -56 -114 -33 -15 -34 -15 -10 -26 l23 -11 -30 -12
c-17 -7 -53 -9 -85 -6 -30 3 -113 8 -185 11 -71 4 -139 7 -150 8 -11 1 -55 -2
-98 -6 -57 -7 -82 -6 -92 3 -11 9 -15 9 -15 1 0 -6 -16 -11 -35 -11 -35 0 -35
0 -19 24 8 14 17 31 18 38 16 91 58 147 143 187 37 18 77 41 88 50 44 40 162
115 229 147 87 42 127 44 155 8z m-1283 -390 c-5 -20 -9 -21 -46 -12 l-39 10
42 50 42 50 3 -37 c2 -21 1 -48 -2 -61z m-776 21 c30 -7 50 -14 43 -14 -19 -2
-120 -108 -149 -156 -24 -43 -59 -128 -69 -170 -2 -11 -9 -40 -15 -64 -12 -48
-18 -97 -19 -152 -1 -31 -5 -37 -26 -41 -31 -6 -116 20 -132 41 -7 9 -13 13
-13 8 0 -4 -13 -1 -30 8 -24 13 -30 22 -30 50 0 29 -3 33 -21 30 -20 -4 -20
-3 -5 20 9 13 16 28 16 32 0 4 -4 1 -10 -7 -15 -25 -20 -6 -5 23 9 17 10 29 4
33 -6 3 -13 3 -16 0 -4 -3 0 -6 8 -7 8 -1 3 -4 -11 -8 -14 -4 -25 -12 -25 -18
0 -17 -15 -29 -15 -12 -1 8 -8 2 -16 -13 -8 -16 -16 -28 -17 -28 -7 0 -1 47 8
60 13 20 15 39 5 45 -5 3 -7 -3 -5 -14 2 -12 -3 -21 -16 -24 -10 -3 -19 0 -20
6 0 7 -4 3 -9 -8 -13 -31 -13 7 1 42 8 22 12 24 19 13 7 -11 9 -6 7 15 -2 22
-7 30 -22 30 -23 0 -27 26 -6 33 8 3 11 0 7 -7 -4 -6 -5 -11 -2 -11 16 0 13
21 -5 30 -15 8 -19 9 -15 1 4 -6 3 -11 -2 -11 -16 0 -34 -57 -27 -82 5 -18 4
-20 -4 -8 -11 15 -15 8 -12 -21 2 -18 -14 -34 -47 -43 -21 -7 -21 -6 -12 21 9
25 8 26 -4 11 -7 -10 -16 -18 -18 -18 -10 0 -16 50 -7 56 5 3 9 10 9 15 0 6
-4 8 -9 4 -6 -3 -15 4 -21 16 -9 17 -9 20 0 14 7 -4 4 4 -5 19 -16 25 -18 25
-31 9 -9 -12 -13 -13 -14 -5 0 7 12 24 26 37 25 23 32 27 50 24 4 0 11 5 15
13 7 10 9 10 9 0 0 -18 37 2 70 38 30 32 79 65 86 57 3 -2 -9 -15 -25 -27 -17
-12 -36 -31 -43 -43 -10 -19 -9 -20 4 -10 8 7 19 9 23 5 5 -4 5 -1 1 6 -4 6
-2 12 3 12 6 0 19 8 29 18 36 34 81 62 109 66 174 28 243 43 268 58 36 22 107
23 185 3z m-602 -320 c1 -13 -2 -26 -6 -29 -6 -3 -8 36 -3 52 3 8 7 -2 9 -23z
m-218 -85 c0 -6 -7 -13 -15 -16 -8 -4 -15 -14 -16 -23 0 -9 -3 -11 -5 -4 -6
15 13 53 26 53 6 0 10 -5 10 -10z m57 -42 c-3 -8 -6 -5 -6 6 -1 11 2 17 5 13
3 -3 4 -12 1 -19z"/>
<path d="M4905 5873 c-49 -7 -108 -19 -130 -27 -22 -8 -52 -17 -67 -20 -15 -3
-50 -29 -79 -58 l-51 -51 4 -60 c3 -35 10 -63 16 -65 7 -2 18 -9 25 -16 6 -7
20 -15 30 -19 13 -5 17 -1 17 14 0 16 3 18 18 10 15 -8 22 -4 36 21 15 24 23
29 47 26 17 -3 26 0 23 6 -3 6 1 3 9 -6 8 -10 24 -18 36 -18 12 0 24 -7 27
-15 4 -11 10 -12 18 -6 8 7 12 4 12 -9 0 -10 -3 -18 -6 -18 -3 1 -13 -2 -23
-7 -17 -7 -45 -4 -82 10 -18 7 -19 6 -5 -8 22 -24 150 -48 191 -37 19 6 45 10
59 10 14 0 40 13 59 30 18 17 46 34 62 37 16 3 31 13 34 23 8 24 2 173 -7 185
-5 6 -16 20 -26 33 -9 12 -27 24 -40 27 -12 2 -28 7 -35 12 -19 12 -74 11
-172 -4z m87 -95 c15 3 19 1 16 -9 -3 -9 -16 -13 -39 -11 -46 5 -59 15 -29 22
14 4 26 3 28 -1 2 -4 12 -4 24 -1z m-187 -118 c3 -5 -1 -10 -9 -10 -9 0 -16 5
-16 10 0 6 4 10 9 10 6 0 13 -4 16 -10z m124 -36 c5 -5 -35 -7 -64 -4 -11 1
-24 6 -30 12 -9 9 84 1 94 -8z"/>
<path d="M4080 5802 c0 -4 -28 -8 -63 -10 -34 -1 -71 -5 -82 -8 -17 -4 -18 -3
-5 6 12 10 10 11 -10 6 -14 -3 -32 -6 -41 -6 -9 0 -32 -14 -53 -32 -34 -29
-37 -35 -35 -79 2 -33 8 -50 18 -55 38 -17 49 -13 62 19 7 17 19 36 26 40 7 4
13 15 13 22 0 8 9 15 20 15 11 0 20 5 20 10 0 15 121 12 148 -4 22 -11 17 -14
-64 -34 -61 -15 -96 -30 -115 -48 -17 -16 -32 -23 -40 -18 -9 5 -10 2 -4 -12
4 -10 8 -26 9 -35 0 -14 11 -17 58 -16 32 1 58 5 58 8 0 4 9 5 20 2 12 -3 22
1 26 10 3 10 24 18 52 22 26 4 55 9 65 12 9 2 17 0 17 -6 0 -6 -9 -11 -20 -11
-11 0 -20 -4 -20 -10 0 -11 11 -13 34 -4 9 3 16 12 16 20 0 8 5 14 11 14 5 0
8 -4 5 -9 -4 -5 3 -7 14 -4 15 4 19 1 15 -9 -4 -9 0 -15 9 -15 8 0 14 5 13 11
-1 6 13 12 31 14 17 2 32 8 32 13 0 6 10 9 23 8 28 -4 47 8 47 29 -1 24 -78
105 -120 126 -35 17 -190 32 -190 18z"/>
<path d="M4735 5600 c-8 -13 3 -30 18 -29 8 0 7 3 -2 6 -10 4 -10 7 -1 13 8 5
9 10 2 14 -6 3 -13 2 -17 -4z"/>
<path d="M4054 5578 c-7 -11 48 -10 65 1 10 6 2 9 -23 8 -21 -1 -40 -5 -42 -9z"/>
<path d="M4220 5560 c-8 -5 -12 -12 -9 -15 4 -3 12 1 19 10 14 17 11 19 -10 5z"/>
<path d="M4170 5535 c-15 -8 -19 -14 -10 -14 18 -1 46 16 40 23 -3 2 -16 -2
-30 -9z"/>
<path d="M5214 5215 c0 -28 11 -33 20 -9 9 24 7 34 -7 34 -7 0 -13 -11 -13
-25z"/>
<path d="M4150 5213 c-34 -14 -96 -66 -112 -95 -19 -34 -16 -51 5 -27 6 9 40
38 74 65 71 55 83 76 33 57z"/>
<path d="M5190 5204 c0 -8 5 -12 10 -9 6 4 8 11 5 16 -9 14 -15 11 -15 -7z"/>
<path d="M3880 5015 c-7 -9 -10 -18 -7 -21 3 -3 10 4 17 15 13 25 8 27 -10 6z"/>
<path d="M3931 4034 c-1 -34 36 -143 74 -214 38 -72 48 -73 13 -1 -12 25 -37
88 -54 141 -18 52 -33 85 -33 74z"/>
<path d="M4290 3910 c0 -5 5 -10 10 -10 6 0 10 5 10 10 0 6 -4 10 -10 10 -5 0
-10 -4 -10 -10z"/>
<path d="M4519 3736 c10 -11 7 -17 -11 -30 -12 -9 -30 -16 -39 -16 -9 0 -23
-7 -30 -17 -13 -15 -12 -15 6 -6 11 6 41 14 66 18 45 7 48 6 75 -29 27 -33 54
-47 54 -28 0 12 -111 122 -123 122 -5 0 -5 -6 2 -14z"/>
<path d="M4701 3504 c0 -11 3 -14 6 -6 3 7 2 16 -1 19 -3 4 -6 -2 -5 -13z"/>
<path d="M3980 1839 c-10 -18 -9 -20 7 -17 10 2 19 11 21 21 5 24 -15 21 -28
-4z"/>
<path d="M3506 5548 c-9 -12 -16 -34 -16 -49 0 -25 1 -26 35 -15 19 6 35 14
35 18 0 5 8 8 17 8 13 0 10 7 -12 30 -34 36 -39 37 -59 8z"/>
</g>
</svg>
